<svg width="32" height="32" viewBox="0 0 32 32" fill="none" xmlns="http://www.w3.org/2000/svg">
<g clip-path="url(#clip0_101_3507)">
<path fill-rule="evenodd" clip-rule="evenodd" d="M16 0C7.131 0 0 7.131 0 16C0 24.777 7.131 32 16 32C24.777 32 32 24.869 32 16C31.909 7.131 24.777 0 16 0Z" fill="#002D6E"/>
<path fill-rule="evenodd" clip-rule="evenodd" d="M18.743 14.537C19.748 14.08 20.388 13.44 20.846 12.983C21.668 12.069 21.943 10.971 21.943 9.87401C21.943 9.05101 21.668 7.31401 20.206 6.12601C19.2 5.30301 18.286 4.93701 16.091 4.93701H10.331V26.331H23.223V22.217C23.223 18.377 22.034 15.726 18.743 14.537ZM20.297 25.234H17.92V18.103H15.268V25.234H13.166V6.03401H15.268C16.091 6.03401 17.28 6.21701 18.103 7.22301C18.56 7.77101 18.834 8.50301 18.926 9.14301H15.177V10.24H18.926C18.926 10.88 18.743 11.703 18.103 12.526C17.554 13.257 16.548 13.897 15.177 13.897V14.994C18.834 14.994 20.206 17.371 20.206 21.851V25.234H20.297Z" fill="white"/>
</g>
<defs>
<clipPath id="clip0_101_3507">
<rect width="32" height="32" fill="white"/>
</clipPath>
</defs>
</svg>
