<svg width="48" height="48" viewBox="0 0 48 48" fill="none" xmlns="http://www.w3.org/2000/svg">
<path fill-rule="evenodd" clip-rule="evenodd" d="M10 25C10 24.4477 9.55228 24 9 24V24C8.44772 24 8 24.4477 8 25V34C8 35.1046 8.89543 36 10 36H38C39.1046 36 40 35.1046 40 34V25C40 24.4477 39.5523 24 39 24V24C38.4477 24 38 24.4477 38 25V32C38 33.1046 37.1046 34 36 34H12C10.8954 34 10 33.1046 10 32V25Z" fill="#002D6E" fill-opacity="0.75"/>
<path d="M25 12C25 11.4477 24.5523 11 24 11C23.4477 11 23 11.4477 23 12H25ZM23.2929 29.7071C23.6834 30.0976 24.3166 30.0976 24.7071 29.7071L31.0711 23.3431C31.4616 22.9526 31.4616 22.3195 31.0711 21.9289C30.6805 21.5384 30.0474 21.5384 29.6569 21.9289L24 27.5858L18.3431 21.9289C17.9526 21.5384 17.3195 21.5384 16.9289 21.9289C16.5384 22.3195 16.5384 22.9526 16.9289 23.3431L23.2929 29.7071ZM23 12V29H25V12H23Z" fill="#002D6E"/>
</svg>
